<?xml version="1.0" encoding="UTF-8" standalone="no"?>
<!-- Created with Inkscape (http://www.inkscape.org/) -->

<svg
   xmlns:dc="http://purl.org/dc/elements/1.1/"
   xmlns:cc="http://creativecommons.org/ns#"
   xmlns:rdf="http://www.w3.org/1999/02/22-rdf-syntax-ns#"
   xmlns:svg="http://www.w3.org/2000/svg"
   xmlns="http://www.w3.org/2000/svg"
   xmlns:sodipodi="http://sodipodi.sourceforge.net/DTD/sodipodi-0.dtd"
   xmlns:inkscape="http://www.inkscape.org/namespaces/inkscape"
   id="svg2"
   version="1.1"
   inkscape:version="0.47 r22583"
   width="387.64212"
   height="89.99575"
   xml:space="preserve"
   sodipodi:docname="Open Agile Logo - White.svg"
   inkscape:export-filename="/Users/mberteig/bci_openagile/Common Materials/Vector Images/Open Agile Logo - White.png"
   inkscape:export-xdpi="300.01416"
   inkscape:export-ydpi="300.01416"><metadata
     id="metadata8"><rdf:RDF><cc:Work
         rdf:about=""><dc:format>image/svg+xml</dc:format><dc:type
           rdf:resource="http://purl.org/dc/dcmitype/StillImage" /><dc:title></dc:title></cc:Work></rdf:RDF></metadata><defs
     id="defs6"><inkscape:perspective
       sodipodi:type="inkscape:persp3d"
       inkscape:vp_x="0 : 0.5 : 1"
       inkscape:vp_y="0 : 1000 : 0"
       inkscape:vp_z="1 : 0.5 : 1"
       inkscape:persp3d-origin="0.5 : 0.33333333 : 1"
       id="perspective10" /><clipPath
       clipPathUnits="userSpaceOnUse"
       id="clipPath18"><path
         d="m 0,841.89 595.276,0 L 595.276,0 0,0 0,841.89 z"
         id="path20" /></clipPath></defs><sodipodi:namedview
     pagecolor="#ffffff"
     bordercolor="#666666"
     borderopacity="1"
     objecttolerance="10"
     gridtolerance="10"
     guidetolerance="10"
     inkscape:pageopacity="0"
     inkscape:pageshadow="2"
     inkscape:window-width="1812"
     inkscape:window-height="1108"
     id="namedview4"
     showgrid="false"
     inkscape:zoom="2.3888013"
     inkscape:cx="116.37636"
     inkscape:cy="44.997875"
     inkscape:window-x="0"
     inkscape:window-y="0"
     inkscape:window-maximized="0"
     inkscape:current-layer="g12" /><g
     id="g12"
     inkscape:groupmode="layer"
     inkscape:label="Open Agile Logo Draft 1"
     transform="matrix(1.25,0,0,-1.25,-179.6925,653.8605)"><g
       id="g22"
       transform="translate(161.7295,506.4487)"
       style="fill:#ffffff;fill-opacity:1;stroke:#ffffff;stroke-opacity:1"><path
         d="m 0,0 c -3.744,-4.019 -5.822,-11.758 -5.822,-17.786 0,-7.07 2.979,-12.355 9.771,-12.355 2.911,0 5.681,1.415 7.831,3.647 3.166,3.402 5.095,10.009 5.568,15.486 0.076,0.876 0.114,1.724 0.114,2.524 0,6.251 -2.08,12.279 -9.424,12.279 C 4.919,3.795 2.148,2.307 0,0 m 28.064,-8.186 c 0,-9.154 -2.98,-18.009 -8.314,-23.665 -4.368,-4.541 -10.257,-7.219 -17.257,-7.219 -12.126,0 -18.917,9.228 -18.917,20.911 0,9.079 3.117,18.084 8.593,23.74 4.366,4.466 10.324,7.144 17.048,7.144 12.333,0 18.847,-8.93 18.847,-20.911"
         style="fill:#ffffff;fill-opacity:1;fill-rule:nonzero;stroke:#ffffff;stroke-opacity:1"
         id="path24" /></g><g
       id="g26"
       transform="translate(161.7295,506.4487)"
       style="fill:#ffffff;fill-opacity:1;stroke:#ffffff;stroke-opacity:1"><path
         d="m 0,0 c -3.744,-4.019 -5.822,-11.758 -5.822,-17.786 0,-7.07 2.979,-12.355 9.771,-12.355 2.911,0 5.681,1.415 7.831,3.647 3.166,3.402 5.095,10.009 5.568,15.486 0.076,0.876 0.114,1.724 0.114,2.524 0,6.251 -2.08,12.279 -9.424,12.279 C 4.919,3.795 2.148,2.307 0,0 z m 28.064,-8.186 c 0,-9.154 -2.98,-18.009 -8.314,-23.665 -4.368,-4.541 -10.257,-7.219 -17.257,-7.219 -12.126,0 -18.917,9.228 -18.917,20.911 0,9.079 3.117,18.084 8.593,23.74 4.366,4.466 10.324,7.144 17.048,7.144 12.333,0 18.847,-8.93 18.847,-20.911 z"
         style="fill:#ffffff;stroke:#ffffff;stroke-width:3.10299993000000018;stroke-linecap:butt;stroke-linejoin:miter;stroke-miterlimit:4;stroke-opacity:1;stroke-dasharray:none;fill-opacity:1"
         id="path28" /></g><g
       id="g30"
       transform="translate(202.4424,477.2764)"
       style="fill:#ffffff;fill-opacity:1;stroke:#ffffff;stroke-opacity:1"><path
         d="m 0,0 c 1.109,-1.117 2.635,-1.786 4.574,-1.786 5.337,0 9.494,8.186 9.494,15.33 0,2.903 -1.109,5.954 -4.365,5.954 -3.742,0 -7.208,-4.54 -8.455,-11.685 L 0,0 z m -14.204,-23.814 6.514,37.06 c 0.761,4.317 1.594,10.643 2.008,14.363 l 8.94,0 -0.623,-5.582 0.139,0 c 2.77,3.946 6.79,6.104 10.878,6.104 7.346,0 10.88,-6.326 10.88,-13.768 0,-12.651 -7.831,-24.261 -19.611,-24.261 -2.773,0 -5.128,0.744 -6.306,1.488 l -0.139,0 -2.772,-15.404 -9.908,0 z"
         style="fill:#ffffff;fill-opacity:1;fill-rule:nonzero;stroke:#ffffff;stroke-opacity:1"
         id="path32" /></g><g
       id="g34"
       transform="translate(202.4424,477.2764)"
       style="fill:#ffffff;fill-opacity:1;stroke:#ffffff;stroke-opacity:1"><path
         d="m 0,0 c 1.109,-1.117 2.635,-1.786 4.574,-1.786 5.337,0 9.494,8.186 9.494,15.33 0,2.903 -1.109,5.954 -4.365,5.954 -3.742,0 -7.208,-4.54 -8.455,-11.685 L 0,0 z m -14.204,-23.814 6.514,37.06 c 0.761,4.317 1.594,10.643 2.008,14.363 l 8.94,0 -0.623,-5.582 0.139,0 c 2.77,3.946 6.79,6.104 10.878,6.104 7.346,0 10.88,-6.326 10.88,-13.768 0,-12.651 -7.831,-24.261 -19.611,-24.261 -2.773,0 -5.128,0.744 -6.306,1.488 l -0.139,0 -2.772,-15.404 -9.908,0 z"
         style="fill:#ffffff;stroke:#ffffff;stroke-width:3.10299993000000018;stroke-linecap:butt;stroke-linejoin:miter;stroke-miterlimit:4;stroke-opacity:1;stroke-dasharray:none;fill-opacity:1"
         id="path36" /></g><g
       id="g38"
       transform="translate(253.8921,494.5415)"
       style="fill:#ffffff;fill-opacity:1;stroke:#ffffff;stroke-opacity:1"><path
         d="m 0,0 c 0,1.786 -1.386,3.051 -3.674,3.051 -4.642,0 -7.276,-4.093 -7.968,-7.516 C -3.882,-4.54 0,-3.349 0,-0.074 L 0,0 z m 14.521,-20.527 c -3.95,-2.159 -18.264,-6.636 -22.006,-6.636 -9.702,0 -14.691,5.954 -14.691,15.405 0,11.089 7.484,22.624 19.751,22.624 6.86,0 11.779,-4.094 11.779,-10.866 0,-9.304 -8.384,-12.652 -21.967,-12.279 0,-1.042 0.347,-2.679 1.038,-3.721 1.318,-1.86 3.606,-2.827 6.514,-2.827 3.675,0 16.185,4.625 18.888,6.039 l 0.694,-7.739 z"
         style="fill:#ffffff;fill-opacity:1;fill-rule:nonzero;stroke:#ffffff;stroke-opacity:1"
         id="path40" /></g><g
       id="g42"
       transform="translate(253.8921,494.5415)"
       style="fill:#ffffff;fill-opacity:1;stroke:#ffffff;stroke-opacity:1"><path
         d="m 0,0 c 0,1.786 -1.386,3.051 -3.674,3.051 -4.642,0 -7.276,-4.093 -7.968,-7.516 C -3.882,-4.54 0,-3.349 0,-0.074 L 0,0 z m 14.521,-20.527 c -3.95,-2.159 -18.264,-6.636 -22.006,-6.636 -9.702,0 -14.691,5.954 -14.691,15.405 0,11.089 7.484,22.624 19.751,22.624 6.86,0 11.779,-4.094 11.779,-10.866 0,-9.304 -8.384,-12.652 -21.967,-12.279 0,-1.042 0.347,-2.679 1.038,-3.721 1.318,-1.86 3.606,-2.827 6.514,-2.827 3.675,0 16.185,4.625 18.888,6.039 l 0.694,-7.739 z"
         style="fill:#ffffff;stroke:#ffffff;stroke-width:3.10299993000000018;stroke-linecap:butt;stroke-linejoin:miter;stroke-miterlimit:4;stroke-opacity:1;stroke-dasharray:none;fill-opacity:1"
         id="path44" /></g><g
       id="g46"
       transform="translate(265.3481,468.1968)"
       style="fill:#ffffff;fill-opacity:1;stroke:#ffffff;stroke-opacity:1"><path
         d="m 0,0 4.296,24.558 c 0.832,4.614 1.386,8.633 1.802,11.833 l 8.87,0 -0.693,-6.027 0.139,0 c 3.189,4.762 7.413,6.846 11.919,6.846 5.543,0 8.663,-3.647 8.663,-9.898 0,-1.636 -0.278,-4.39 -0.555,-6.176 L 30.697,0 20.72,0 24.254,20.167 c 0.208,1.267 0.347,2.755 0.347,4.094 0,2.53 -0.833,4.316 -3.328,4.316 -3.256,0 -7.067,-4.39 -8.453,-12.427 L 9.979,0 0,0 z"
         style="fill:#ffffff;fill-opacity:1;fill-rule:nonzero;stroke:#ffffff;stroke-opacity:1"
         id="path48" /></g><g
       id="g50"
       transform="translate(265.3481,468.1968)"
       style="fill:#ffffff;fill-opacity:1;stroke:#ffffff;stroke-opacity:1"><path
         d="m 0,0 4.296,24.558 c 0.832,4.614 1.386,8.633 1.802,11.833 l 8.87,0 -0.693,-6.027 0.139,0 c 3.189,4.762 7.413,6.846 11.919,6.846 5.543,0 8.663,-3.647 8.663,-9.898 0,-1.636 -0.278,-4.39 -0.555,-6.176 L 30.697,0 20.72,0 24.254,20.167 c 0.208,1.267 0.347,2.755 0.347,4.094 0,2.53 -0.833,4.316 -3.328,4.316 -3.256,0 -7.067,-4.39 -8.453,-12.427 L 9.979,0 0,0 z"
         style="fill:#ffffff;stroke:#ffffff;stroke-width:3.10299993000000018;stroke-linecap:butt;stroke-linejoin:miter;stroke-miterlimit:4;stroke-opacity:1;stroke-dasharray:none;fill-opacity:1"
         id="path52" /></g><g
       id="g54"
       transform="translate(325.541,489.4067)"
       style="fill:#ffffff;fill-opacity:1;stroke:#ffffff;stroke-opacity:1"><path
         d="m 0,0 -0.902,10.79 c -0.207,2.755 -0.485,6.773 -0.692,9.825 l -0.14,0 C -2.912,17.563 -4.23,13.693 -5.477,10.79 L -10.119,0 0,0 z m -13.029,-8.187 -5.543,-13.023 -10.602,0 22.729,50.159 12.82,0 3.988,-41.494 7.182,-0.463 11.65,-7.808 -27.81,-0.394 -0.971,13.023 -13.443,0 z"
         style="fill:#ffffff;fill-opacity:1;fill-rule:nonzero;stroke:#ffffff;stroke-opacity:1"
         id="path56" /></g><g
       id="g58"
       transform="translate(325.541,489.4067)"
       style="fill:#ffffff;fill-opacity:1;stroke:#ffffff;stroke-opacity:1"><path
         d="m 0,0 -0.902,10.79 c -0.207,2.755 -0.485,6.773 -0.692,9.825 l -0.14,0 C -2.912,17.563 -4.23,13.693 -5.477,10.79 L -10.119,0 0,0 z m -13.029,-8.187 -5.543,-13.023 -10.602,0 22.729,50.159 12.82,0 3.988,-41.494 7.182,-0.463 11.65,-7.808 -27.81,-0.394 -0.971,13.023 -13.443,0 z"
         style="fill:#ffffff;stroke:#ffffff;stroke-width:3.10299993000000018;stroke-linecap:butt;stroke-linejoin:round;stroke-miterlimit:4;stroke-opacity:1;stroke-dasharray:none;fill-opacity:1"
         id="path60" /></g><g
       id="g62"
       transform="translate(366.75,496.5513)"
       style="fill:#ffffff;fill-opacity:1;stroke:#ffffff;stroke-opacity:1"><path
         d="m 0,0 c -0.764,0.372 -2.217,0.669 -3.602,0.669 -6.031,0 -10.328,-7.219 -10.328,-14.14 0,-3.645 1.526,-6.323 4.573,-6.323 3.257,0 6.586,3.867 7.625,10.045 L 0,0 z m -23.283,-33.415 c 1.869,-1.19 6.027,-2.009 8.869,-2.009 4.99,0 8.732,2.382 10.117,9.675 l 0.555,3.05 -0.139,0 c -2.633,-3.647 -5.682,-5.357 -9.703,-5.357 -6.721,0 -10.809,5.88 -10.877,12.949 0,12.055 7.969,23.963 22.729,23.963 4.781,0 9.007,-0.894 12.543,-2.53 L 5.682,-23.666 c -1.178,-6.698 -3.049,-12.65 -7.135,-16.148 -3.676,-3.126 -8.594,-4.094 -13.1,-4.094 -4.504,0 -8.73,0.893 -11.017,2.307 l 2.287,8.186 z"
         style="fill:#ffffff;fill-opacity:1;fill-rule:nonzero;stroke:#ffffff;stroke-opacity:1"
         id="path64" /></g><g
       id="g66"
       transform="translate(366.75,496.5513)"
       style="fill:#ffffff;fill-opacity:1;stroke:#ffffff;stroke-opacity:1"><path
         d="m 0,0 c -0.764,0.372 -2.217,0.669 -3.602,0.669 -6.031,0 -10.328,-7.219 -10.328,-14.14 0,-3.645 1.526,-6.323 4.573,-6.323 3.257,0 6.586,3.867 7.625,10.045 L 0,0 z m -23.283,-33.415 c 1.869,-1.19 6.027,-2.009 8.869,-2.009 4.99,0 8.732,2.382 10.117,9.675 l 0.555,3.05 -0.139,0 c -2.633,-3.647 -5.682,-5.357 -9.703,-5.357 -6.721,0 -10.809,5.88 -10.877,12.949 0,12.055 7.969,23.963 22.729,23.963 4.781,0 9.007,-0.894 12.543,-2.53 L 5.682,-23.666 c -1.178,-6.698 -3.049,-12.65 -7.135,-16.148 -3.676,-3.126 -8.594,-4.094 -13.1,-4.094 -4.504,0 -8.73,0.893 -11.017,2.307 l 2.287,8.186 z"
         style="fill:#ffffff;stroke:#ffffff;stroke-width:3.10299993000000018;stroke-linecap:butt;stroke-linejoin:miter;stroke-miterlimit:4;stroke-opacity:1;stroke-dasharray:none;fill-opacity:1"
         id="path68" /></g><g
       id="g70"
       transform="translate(379.7656,468.1968)"
       style="fill:#ffffff;fill-opacity:1;stroke:#ffffff;stroke-opacity:1"><path
         d="m 0,0 6.443,36.391 9.979,0 L 9.977,0 0,0 z"
         style="fill:#ffffff;fill-opacity:1;fill-rule:nonzero;stroke:#ffffff;stroke-opacity:1"
         id="path72" /></g><g
       id="g74"
       transform="translate(379.7656,468.1968)"
       style="fill:#ffffff;fill-opacity:1;stroke:#ffffff;stroke-opacity:1"><path
         d="m 0,0 6.443,36.391 9.979,0 L 9.977,0 0,0 z"
         style="fill:#ffffff;stroke:#ffffff;stroke-width:3.10299993000000018;stroke-linecap:butt;stroke-linejoin:miter;stroke-miterlimit:4;stroke-opacity:1;stroke-dasharray:none;fill-opacity:1"
         id="path76" /></g><g
       id="g78"
       transform="translate(352.752,508.9214)"
       style="fill:#0030f6;fill-opacity:1"><path
         d="M 0,0 48.555,14.167 46.045,0 0,0 z"
         style="fill:#0030f6;fill-opacity:1;fill-rule:nonzero;stroke:none"
         id="path80" /></g><g
       id="g82"
       transform="translate(398.0977,468.1968)"
       style="fill:#ffffff;fill-opacity:1;stroke:#ffffff;stroke-opacity:1"><path
         d="m 0,0 9.424,52.838 9.978,0 L 9.979,0 0,0 z"
         style="fill:#ffffff;fill-opacity:1;fill-rule:nonzero;stroke:#ffffff;stroke-opacity:1"
         id="path84" /></g><g
       id="g86"
       transform="translate(398.0977,468.1968)"
       style="fill:#ffffff;fill-opacity:1;stroke:#ffffff;stroke-opacity:1"><path
         d="m 0,0 9.424,52.838 9.978,0 L 9.979,0 0,0 z"
         style="fill:#ffffff;stroke:#ffffff;stroke-width:3.10299993000000018;stroke-linecap:butt;stroke-linejoin:miter;stroke-miterlimit:4;stroke-opacity:1;stroke-dasharray:none;fill-opacity:1"
         id="path88" /></g><g
       id="g90"
       transform="translate(439.3262,494.5415)"
       style="fill:#ffffff;fill-opacity:1;stroke:#ffffff;stroke-opacity:1"><path
         d="m 0,0 c 0,1.786 -1.387,3.051 -3.674,3.051 -4.642,0 -7.275,-4.093 -7.967,-7.516 C -3.879,-4.54 0,-3.349 0,-0.074 L 0,0 z M 12.99,-21.841 C 9.039,-24 -3.742,-27.163 -7.484,-27.163 c -9.702,0 -14.69,5.954 -14.69,15.405 0,11.089 7.481,22.624 19.75,22.624 6.86,0 11.779,-4.094 11.779,-10.866 0,-9.304 -8.386,-12.652 -21.968,-12.279 0,-1.042 0.347,-2.679 1.041,-3.721 1.316,-1.86 3.605,-2.827 6.513,-2.827 3.672,0 14.653,3.312 17.356,4.725 l 0.693,-7.739 z"
         style="fill:#ffffff;fill-opacity:1;fill-rule:nonzero;stroke:#ffffff;stroke-opacity:1"
         id="path92" /></g><g
       id="g94"
       transform="translate(439.3262,494.5415)"
       style="fill:#ffffff;fill-opacity:1;stroke:#ffffff;stroke-opacity:1"><path
         d="m 0,0 c 0,1.786 -1.387,3.051 -3.674,3.051 -4.642,0 -7.275,-4.093 -7.967,-7.516 C -3.879,-4.54 0,-3.349 0,-0.074 L 0,0 z M 12.99,-21.841 C 9.039,-24 -3.742,-27.163 -7.484,-27.163 c -9.702,0 -14.69,5.954 -14.69,15.405 0,11.089 7.481,22.624 19.75,22.624 6.86,0 11.779,-4.094 11.779,-10.866 0,-9.304 -8.386,-12.652 -21.968,-12.279 0,-1.042 0.347,-2.679 1.041,-3.721 1.316,-1.86 3.605,-2.827 6.513,-2.827 3.672,0 14.653,3.312 17.356,4.725 l 0.693,-7.739 z"
         style="fill:#ffffff;stroke:#ffffff;stroke-width:3.10299993000000018;stroke-linecap:butt;stroke-linejoin:miter;stroke-miterlimit:4;stroke-opacity:1;stroke-dasharray:none;fill-opacity:1"
         id="path96" /></g></g></svg>