<?xml version="1.0" encoding="UTF-8" standalone="no"?>
<!-- Created with Inkscape (http://www.inkscape.org/) -->

<svg
   xmlns:dc="http://purl.org/dc/elements/1.1/"
   xmlns:cc="http://creativecommons.org/ns#"
   xmlns:rdf="http://www.w3.org/1999/02/22-rdf-syntax-ns#"
   xmlns:svg="http://www.w3.org/2000/svg"
   xmlns="http://www.w3.org/2000/svg"
   xmlns:sodipodi="http://sodipodi.sourceforge.net/DTD/sodipodi-0.dtd"
   xmlns:inkscape="http://www.inkscape.org/namespaces/inkscape"
   id="svg2"
   version="1.1"
   inkscape:version="0.47 r22583"
   width="500"
   height="200"
   xml:space="preserve"
   sodipodi:docname="Open Agile Logo 01 - with url.svg"><metadata
     id="metadata8"><rdf:RDF><cc:Work
         rdf:about=""><dc:format>image/svg+xml</dc:format><dc:type
           rdf:resource="http://purl.org/dc/dcmitype/StillImage" /><dc:title /></cc:Work></rdf:RDF></metadata><defs
     id="defs6"><inkscape:perspective
       sodipodi:type="inkscape:persp3d"
       inkscape:vp_x="0 : 0.5 : 1"
       inkscape:vp_y="0 : 1000 : 0"
       inkscape:vp_z="1 : 0.5 : 1"
       inkscape:persp3d-origin="0.5 : 0.33333333 : 1"
       id="perspective10" /><clipPath
       clipPathUnits="userSpaceOnUse"
       id="clipPath18"><path
         d="m 0,841.89 595.276,0 L 595.276,0 0,0 0,841.89 z"
         id="path20" /></clipPath></defs><sodipodi:namedview
     pagecolor="#ffffff"
     bordercolor="#666666"
     borderopacity="1"
     objecttolerance="10"
     gridtolerance="10"
     guidetolerance="10"
     inkscape:pageopacity="0"
     inkscape:pageshadow="2"
     inkscape:window-width="1027"
     inkscape:window-height="757"
     id="namedview4"
     showgrid="false"
     inkscape:zoom="1.852"
     inkscape:cx="250"
     inkscape:cy="100"
     inkscape:window-x="100"
     inkscape:window-y="0"
     inkscape:window-maximized="0"
     inkscape:current-layer="text2852" /><g
     id="g12"
     inkscape:groupmode="layer"
     inkscape:label="Open Agile Logo Draft 1"
     transform="matrix(1.25,0,0,-1.25,0,199.99995)"><g
   id="g22"
   transform="translate(64.143032,114.44882)"><path
     d="m 0,0 c -3.744,-4.019 -5.822,-11.758 -5.822,-17.786 0,-7.07 2.979,-12.355 9.771,-12.355 2.911,0 5.681,1.415 7.831,3.647 3.166,3.402 5.095,10.009 5.568,15.486 0.076,0.876 0.114,1.724 0.114,2.524 0,6.251 -2.08,12.279 -9.424,12.279 C 4.919,3.795 2.148,2.307 0,0 m 28.064,-8.186 c 0,-9.154 -2.98,-18.009 -8.314,-23.665 -4.368,-4.541 -10.257,-7.219 -17.257,-7.219 -12.126,0 -18.917,9.228 -18.917,20.911 0,9.079 3.117,18.084 8.593,23.74 4.366,4.466 10.324,7.144 17.048,7.144 12.333,0 18.847,-8.93 18.847,-20.911"
     style="fill:#373535;fill-opacity:1;fill-rule:nonzero;stroke:none"
     id="path24" /></g><g
   id="g26"
   transform="translate(64.143032,114.44882)"
   style="fill:#000000;stroke:#000000;stroke-opacity:1"><path
     d="m 0,0 c -3.744,-4.019 -5.822,-11.758 -5.822,-17.786 0,-7.07 2.979,-12.355 9.771,-12.355 2.911,0 5.681,1.415 7.831,3.647 3.166,3.402 5.095,10.009 5.568,15.486 0.076,0.876 0.114,1.724 0.114,2.524 0,6.251 -2.08,12.279 -9.424,12.279 C 4.919,3.795 2.148,2.307 0,0 z m 28.064,-8.186 c 0,-9.154 -2.98,-18.009 -8.314,-23.665 -4.368,-4.541 -10.257,-7.219 -17.257,-7.219 -12.126,0 -18.917,9.228 -18.917,20.911 0,9.079 3.117,18.084 8.593,23.74 4.366,4.466 10.324,7.144 17.048,7.144 12.333,0 18.847,-8.93 18.847,-20.911 z"
     style="fill:#000000;stroke:#000000;stroke-width:3.10299993;stroke-linecap:butt;stroke-linejoin:miter;stroke-miterlimit:4;stroke-opacity:1;stroke-dasharray:none"
     id="path28" /></g><g
   id="g30"
   transform="translate(104.85593,85.276519)"
   style="stroke:#000000;stroke-opacity:1"><path
     d="m 0,0 c 1.109,-1.117 2.635,-1.786 4.574,-1.786 5.337,0 9.494,8.186 9.494,15.33 0,2.903 -1.109,5.954 -4.365,5.954 -3.742,0 -7.208,-4.54 -8.455,-11.685 L 0,0 z m -14.204,-23.814 6.514,37.06 c 0.761,4.317 1.594,10.643 2.008,14.363 l 8.94,0 -0.623,-5.582 0.139,0 c 2.77,3.946 6.79,6.104 10.878,6.104 7.346,0 10.88,-6.326 10.88,-13.768 0,-12.651 -7.831,-24.261 -19.611,-24.261 -2.773,0 -5.128,0.744 -6.306,1.488 l -0.139,0 -2.772,-15.404 -9.908,0 z"
     style="fill:#373535;fill-opacity:1;fill-rule:nonzero;stroke:#000000;stroke-opacity:1"
     id="path32" /></g><g
   id="g34"
   transform="translate(104.85593,85.276519)"
   style="fill:#000000;fill-opacity:1;stroke:#000000;stroke-opacity:1"><path
     d="m 0,0 c 1.109,-1.117 2.635,-1.786 4.574,-1.786 5.337,0 9.494,8.186 9.494,15.33 0,2.903 -1.109,5.954 -4.365,5.954 -3.742,0 -7.208,-4.54 -8.455,-11.685 L 0,0 z m -14.204,-23.814 6.514,37.06 c 0.761,4.317 1.594,10.643 2.008,14.363 l 8.94,0 -0.623,-5.582 0.139,0 c 2.77,3.946 6.79,6.104 10.878,6.104 7.346,0 10.88,-6.326 10.88,-13.768 0,-12.651 -7.831,-24.261 -19.611,-24.261 -2.773,0 -5.128,0.744 -6.306,1.488 l -0.139,0 -2.772,-15.404 -9.908,0 z"
     style="fill:#000000;fill-opacity:1;stroke:#000000;stroke-width:3.10299993;stroke-linecap:butt;stroke-linejoin:miter;stroke-miterlimit:4;stroke-opacity:1;stroke-dasharray:none"
     id="path36" /></g><g
   id="g38"
   transform="translate(156.30563,102.54162)"><path
     d="m 0,0 c 0,1.786 -1.386,3.051 -3.674,3.051 -4.642,0 -7.276,-4.093 -7.968,-7.516 C -3.882,-4.54 0,-3.349 0,-0.074 L 0,0 z m 14.521,-20.527 c -3.95,-2.159 -18.264,-6.636 -22.006,-6.636 -9.702,0 -14.691,5.954 -14.691,15.405 0,11.089 7.484,22.624 19.751,22.624 6.86,0 11.779,-4.094 11.779,-10.866 0,-9.304 -8.384,-12.652 -21.967,-12.279 0,-1.042 0.347,-2.679 1.038,-3.721 1.318,-1.86 3.606,-2.827 6.514,-2.827 3.675,0 16.185,4.625 18.888,6.039 l 0.694,-7.739 z"
     style="fill:#373535;fill-opacity:1;fill-rule:nonzero;stroke:none"
     id="path40" /></g><g
   id="g42"
   transform="translate(156.30563,102.54162)"
   style="fill:#000000;fill-opacity:1;stroke:#000000;stroke-opacity:1"><path
     d="m 0,0 c 0,1.786 -1.386,3.051 -3.674,3.051 -4.642,0 -7.276,-4.093 -7.968,-7.516 C -3.882,-4.54 0,-3.349 0,-0.074 L 0,0 z m 14.521,-20.527 c -3.95,-2.159 -18.264,-6.636 -22.006,-6.636 -9.702,0 -14.691,5.954 -14.691,15.405 0,11.089 7.484,22.624 19.751,22.624 6.86,0 11.779,-4.094 11.779,-10.866 0,-9.304 -8.384,-12.652 -21.967,-12.279 0,-1.042 0.347,-2.679 1.038,-3.721 1.318,-1.86 3.606,-2.827 6.514,-2.827 3.675,0 16.185,4.625 18.888,6.039 l 0.694,-7.739 z"
     style="fill:#000000;fill-opacity:1;stroke:#000000;stroke-width:3.10299993;stroke-linecap:butt;stroke-linejoin:miter;stroke-miterlimit:4;stroke-opacity:1;stroke-dasharray:none"
     id="path44" /></g><g
   id="g46"
   transform="translate(167.76163,76.196919)"><path
     d="m 0,0 4.296,24.558 c 0.832,4.614 1.386,8.633 1.802,11.833 l 8.87,0 -0.693,-6.027 0.139,0 c 3.189,4.762 7.413,6.846 11.919,6.846 5.543,0 8.663,-3.647 8.663,-9.898 0,-1.636 -0.278,-4.39 -0.555,-6.176 L 30.697,0 20.72,0 24.254,20.167 c 0.208,1.267 0.347,2.755 0.347,4.094 0,2.53 -0.833,4.316 -3.328,4.316 -3.256,0 -7.067,-4.39 -8.453,-12.427 L 9.979,0 0,0 z"
     style="fill:#373535;fill-opacity:1;fill-rule:nonzero;stroke:none"
     id="path48" /></g><g
   id="g50"
   transform="translate(167.76163,76.196919)"
   style="fill:#000000;fill-opacity:1;stroke:#000000;stroke-opacity:1"><path
     d="m 0,0 4.296,24.558 c 0.832,4.614 1.386,8.633 1.802,11.833 l 8.87,0 -0.693,-6.027 0.139,0 c 3.189,4.762 7.413,6.846 11.919,6.846 5.543,0 8.663,-3.647 8.663,-9.898 0,-1.636 -0.278,-4.39 -0.555,-6.176 L 30.697,0 20.72,0 24.254,20.167 c 0.208,1.267 0.347,2.755 0.347,4.094 0,2.53 -0.833,4.316 -3.328,4.316 -3.256,0 -7.067,-4.39 -8.453,-12.427 L 9.979,0 0,0 z"
     style="fill:#000000;fill-opacity:1;stroke:#000000;stroke-width:3.10299993;stroke-linecap:butt;stroke-linejoin:miter;stroke-miterlimit:4;stroke-opacity:1;stroke-dasharray:none"
     id="path52" /></g><g
   id="g54"
   transform="translate(227.95453,97.406819)"><path
     d="m 0,0 -0.902,10.79 c -0.207,2.755 -0.485,6.773 -0.692,9.825 l -0.14,0 C -2.912,17.563 -4.23,13.693 -5.477,10.79 L -10.119,0 0,0 z m -13.029,-8.187 -5.543,-13.023 -10.602,0 22.729,50.159 12.82,0 3.988,-41.494 7.182,-0.463 11.65,-7.808 -27.81,-0.394 -0.971,13.023 -13.443,0 z"
     style="fill:#373535;fill-opacity:1;fill-rule:nonzero;stroke:none"
     id="path56" /></g><g
   id="g58"
   transform="translate(227.95453,97.406819)"
   style="fill:#000000;fill-opacity:1;stroke:#000000;stroke-opacity:1"><path
     d="m 0,0 -0.902,10.79 c -0.207,2.755 -0.485,6.773 -0.692,9.825 l -0.14,0 C -2.912,17.563 -4.23,13.693 -5.477,10.79 L -10.119,0 0,0 z m -13.029,-8.187 -5.543,-13.023 -10.602,0 22.729,50.159 12.82,0 3.988,-41.494 7.182,-0.463 11.65,-7.808 -27.81,-0.394 -0.971,13.023 -13.443,0 z"
     style="fill:#000000;fill-opacity:1;stroke:#000000;stroke-width:3.10299993;stroke-linecap:butt;stroke-linejoin:round;stroke-miterlimit:4;stroke-opacity:1;stroke-dasharray:none"
     id="path60" /></g><g
   id="g62"
   transform="translate(269.16353,104.55142)"><path
     d="m 0,0 c -0.764,0.372 -2.217,0.669 -3.602,0.669 -6.031,0 -10.328,-7.219 -10.328,-14.14 0,-3.645 1.526,-6.323 4.573,-6.323 3.257,0 6.586,3.867 7.625,10.045 L 0,0 z m -23.283,-33.415 c 1.869,-1.19 6.027,-2.009 8.869,-2.009 4.99,0 8.732,2.382 10.117,9.675 l 0.555,3.05 -0.139,0 c -2.633,-3.647 -5.682,-5.357 -9.703,-5.357 -6.721,0 -10.809,5.88 -10.877,12.949 0,12.055 7.969,23.963 22.729,23.963 4.781,0 9.007,-0.894 12.543,-2.53 L 5.682,-23.666 c -1.178,-6.698 -3.049,-12.65 -7.135,-16.148 -3.676,-3.126 -8.594,-4.094 -13.1,-4.094 -4.504,0 -8.73,0.893 -11.017,2.307 l 2.287,8.186 z"
     style="fill:#373535;fill-opacity:1;fill-rule:nonzero;stroke:none"
     id="path64" /></g><g
   id="g66"
   transform="translate(269.16353,104.55142)"
   style="fill:#000000;fill-opacity:1;stroke:#000000;stroke-opacity:1"><path
     d="m 0,0 c -0.764,0.372 -2.217,0.669 -3.602,0.669 -6.031,0 -10.328,-7.219 -10.328,-14.14 0,-3.645 1.526,-6.323 4.573,-6.323 3.257,0 6.586,3.867 7.625,10.045 L 0,0 z m -23.283,-33.415 c 1.869,-1.19 6.027,-2.009 8.869,-2.009 4.99,0 8.732,2.382 10.117,9.675 l 0.555,3.05 -0.139,0 c -2.633,-3.647 -5.682,-5.357 -9.703,-5.357 -6.721,0 -10.809,5.88 -10.877,12.949 0,12.055 7.969,23.963 22.729,23.963 4.781,0 9.007,-0.894 12.543,-2.53 L 5.682,-23.666 c -1.178,-6.698 -3.049,-12.65 -7.135,-16.148 -3.676,-3.126 -8.594,-4.094 -13.1,-4.094 -4.504,0 -8.73,0.893 -11.017,2.307 l 2.287,8.186 z"
     style="fill:#000000;fill-opacity:1;stroke:#000000;stroke-width:3.10299993;stroke-linecap:butt;stroke-linejoin:miter;stroke-miterlimit:4;stroke-opacity:1;stroke-dasharray:none"
     id="path68" /></g><g
   id="g70"
   transform="translate(282.17913,76.196919)"><path
     d="m 0,0 6.443,36.391 9.979,0 L 9.977,0 0,0 z"
     style="fill:#373535;fill-opacity:1;fill-rule:nonzero;stroke:none"
     id="path72" /></g><g
   id="g74"
   transform="translate(282.17913,76.196919)"
   style="fill:#000000;fill-opacity:1;stroke:#000000;stroke-opacity:1"><path
     d="m 0,0 6.443,36.391 9.979,0 L 9.977,0 0,0 z"
     style="fill:#000000;fill-opacity:1;stroke:#000000;stroke-width:3.10299993;stroke-linecap:butt;stroke-linejoin:miter;stroke-miterlimit:4;stroke-opacity:1;stroke-dasharray:none"
     id="path76" /></g><g
   id="g78"
   transform="translate(255.16553,116.92152)"
   style="fill:#000000;fill-opacity:1;stroke:#000000;stroke-opacity:1"><path
     d="M 0,0 48.555,14.167 46.045,0 0,0 z"
     style="fill:#000000;fill-opacity:1;fill-rule:nonzero;stroke:#000000;stroke-opacity:1"
     id="path80" /></g><g
   id="g82"
   transform="translate(300.51123,76.196919)"><path
     d="m 0,0 9.424,52.838 9.978,0 L 9.979,0 0,0 z"
     style="fill:#373535;fill-opacity:1;fill-rule:nonzero;stroke:none"
     id="path84" /></g><g
   id="g86"
   transform="translate(300.51123,76.196919)"
   style="fill:#000000;fill-opacity:1;stroke:#000000;stroke-opacity:1"><path
     d="m 0,0 9.424,52.838 9.978,0 L 9.979,0 0,0 z"
     style="fill:#000000;fill-opacity:1;stroke:#000000;stroke-width:3.10299993;stroke-linecap:butt;stroke-linejoin:miter;stroke-miterlimit:4;stroke-opacity:1;stroke-dasharray:none"
     id="path88" /></g><g
   id="g90"
   transform="translate(341.73973,102.54162)"><path
     d="m 0,0 c 0,1.786 -1.387,3.051 -3.674,3.051 -4.642,0 -7.275,-4.093 -7.967,-7.516 C -3.879,-4.54 0,-3.349 0,-0.074 L 0,0 z M 12.99,-21.841 C 9.039,-24 -3.742,-27.163 -7.484,-27.163 c -9.702,0 -14.69,5.954 -14.69,15.405 0,11.089 7.481,22.624 19.75,22.624 6.86,0 11.779,-4.094 11.779,-10.866 0,-9.304 -8.386,-12.652 -21.968,-12.279 0,-1.042 0.347,-2.679 1.041,-3.721 1.316,-1.86 3.605,-2.827 6.513,-2.827 3.672,0 14.653,3.312 17.356,4.725 l 0.693,-7.739 z"
     style="fill:#373535;fill-opacity:1;fill-rule:nonzero;stroke:none"
     id="path92" /></g><g
   id="g94"
   transform="translate(341.73973,102.54162)"
   style="fill:#000000;fill-opacity:1;stroke:#000000;stroke-opacity:1"><path
     d="m 0,0 c 0,1.786 -1.387,3.051 -3.674,3.051 -4.642,0 -7.275,-4.093 -7.967,-7.516 C -3.879,-4.54 0,-3.349 0,-0.074 L 0,0 z M 12.99,-21.841 C 9.039,-24 -3.742,-27.163 -7.484,-27.163 c -9.702,0 -14.69,5.954 -14.69,15.405 0,11.089 7.481,22.624 19.75,22.624 6.86,0 11.779,-4.094 11.779,-10.866 0,-9.304 -8.386,-12.652 -21.968,-12.279 0,-1.042 0.347,-2.679 1.041,-3.721 1.316,-1.86 3.605,-2.827 6.513,-2.827 3.672,0 14.653,3.312 17.356,4.725 l 0.693,-7.739 z"
     style="fill:#000000;fill-opacity:1;stroke:#000000;stroke-width:3.10299993;stroke-linecap:butt;stroke-linejoin:miter;stroke-miterlimit:4;stroke-opacity:1;stroke-dasharray:none"
     id="path96" /></g><g
   transform="scale(1,-1)"
   style="font-size:32px;font-style:normal;font-weight:normal;fill:#000000;fill-opacity:1;stroke:none;font-family:Bitstream Vera Sans"
   id="text2852"><path
     d="m 51.997721,-44.53729 4.253906,0 0.502735,9.925781 4.357031,-9.925781 3.660937,0 0.528516,9.899999 4.33125,-9.899999 4.5375,0 -6.6,14.437499 -4.898438,0 -0.476953,-9.925781 -4.408593,9.925781 -4.782422,0 -1.005469,-14.437499"
     style="font-size:26.39999962px;font-style:italic;font-weight:bold;-inkscape-font-specification:Bitstream Vera Sans Bold Oblique"
     id="path2855" /><path
     d="m 76.386784,-44.53729 4.253906,0 0.502735,9.925781 4.357031,-9.925781 3.660937,0 0.528516,9.899999 4.33125,-9.899999 4.5375,0 -6.6,14.437499 -4.898438,0 -0.476953,-9.925781 -4.408594,9.925781 -4.782421,0 -1.005469,-14.437499"
     style="font-size:26.39999962px;font-style:italic;font-weight:bold;-inkscape-font-specification:Bitstream Vera Sans Bold Oblique"
     id="path2857" /><path
     d="m 100.77585,-44.53729 4.2539,0 0.50274,9.925781 4.35703,-9.925781 3.66094,0 0.52851,9.899999 4.33125,-9.899999 4.5375,0 -6.6,14.437499 -4.89844,0 -0.47695,-9.925781 -4.40859,9.925781 -4.78242,0 -1.00547,-14.437499"
     style="font-size:26.39999962px;font-style:italic;font-weight:bold;-inkscape-font-specification:Bitstream Vera Sans Bold Oblique"
     id="path2859" /><path
     d="m 123.36022,-35.088462 4.64062,0 -0.96679,4.988671 -4.65352,0 0.97969,-4.988671"
     style="font-size:26.39999962px;font-style:italic;font-weight:bold;-inkscape-font-specification:Bitstream Vera Sans Bold Oblique"
     id="path2861" /><path
     d="m 147.46569,-41.456431 c -2e-5,-1.512487 -0.34377,-2.664048 -1.03125,-3.454687 -0.67892,-0.79061 -1.6672,-1.185922 -2.96485,-1.185938 -1.71876,1.6e-5 -3.16251,0.773453 -4.33125,2.320312 -1.16016,1.538294 -1.74024,3.467589 -1.74023,5.787891 -1e-5,1.478131 0.33945,2.625396 1.01836,3.441797 0.6789,0.81641 1.62421,1.224612 2.83594,1.224609 0.98827,3e-6 1.86483,-0.206246 2.62968,-0.61875 0.77343,-0.421089 1.43085,-1.039839 1.97227,-1.85625 0.51561,-0.782024 0.91092,-1.662883 1.18594,-2.642578 0.28357,-0.979678 0.42537,-1.985146 0.42539,-3.016406 m -3.27422,-8.237109 c 2.56092,1.9e-5 4.61912,0.7133 6.17461,2.139843 1.56404,1.417985 2.34607,3.274233 2.34609,5.56875 -2e-5,1.564073 -0.24065,3.042197 -0.72187,4.434375 -0.47268,1.392194 -1.16448,2.642583 -2.07539,3.751172 -1.11721,1.366409 -2.44065,2.389064 -3.97032,3.067969 -1.5211,0.670312 -3.27852,1.005468 -5.27226,1.005469 -2.55235,-1e-6 -4.60626,-0.708984 -6.16172,-2.126954 -1.55547,-1.417965 -2.33321,-3.27851 -2.3332,-5.58164 -1e-5,-1.572647 0.23632,-3.055068 0.70898,-4.447266 0.47265,-1.392174 1.16875,-2.64686 2.08828,-3.764062 1.1,-1.357796 2.41054,-2.371857 3.93164,-3.042188 1.52968,-0.670293 3.2914,-1.005449 5.28516,-1.005468"
     style="font-size:26.39999962px;font-style:italic;font-weight:bold;-inkscape-font-specification:Bitstream Vera Sans Bold Oblique"
     id="path2863" /><path
     d="m 159.51842,-32.188072 -1.48242,7.579688 -4.64063,0 3.88008,-19.928906 4.64063,0 -0.42539,2.114062 c 0.70468,-0.842174 1.44374,-1.460924 2.21718,-1.85625 0.77343,-0.403892 1.61991,-0.605844 2.53946,-0.605859 1.6242,1.5e-5 2.90897,0.515639 3.85429,1.546875 0.9453,1.031262 1.41795,2.436339 1.41797,4.215234 -2e-5,1.108602 -0.16759,2.187116 -0.50273,3.235547 -0.32658,1.048442 -0.79924,2.002347 -1.41797,2.861719 -0.78205,1.082814 -1.6672,1.903516 -2.65547,2.462109 -0.9797,0.558594 -2.03243,0.83789 -3.1582,0.837891 -0.98829,-1e-6 -1.83048,-0.197657 -2.52656,-0.592969 -0.68751,-0.403906 -1.26759,-1.026952 -1.74024,-1.869141 m 4.84688,-9.345703 c -1.18595,1.2e-5 -2.15704,0.550011 -2.91329,1.65 -0.74766,1.091415 -1.12149,2.513679 -1.12148,4.266797 -1e-5,0.79063 0.21054,1.413676 0.63164,1.869141 0.42968,0.446878 1.02265,0.670315 1.77891,0.670312 1.16014,3e-6 2.11835,-0.537106 2.87461,-1.611328 0.75623,-1.082807 1.13436,-2.466399 1.13437,-4.150781 -1e-5,-0.876553 -0.20626,-1.542568 -0.61875,-1.998047 -0.40392,-0.464051 -0.99259,-0.696082 -1.76601,-0.696094"
     style="font-size:26.39999962px;font-style:italic;font-weight:bold;-inkscape-font-specification:Bitstream Vera Sans Bold Oblique"
     id="path2865" /><path
     d="m 189.17975,-36.777134 -0.15469,0.734765 -10.80234,0 c -1e-5,0.05157 -0.004,0.128912 -0.0129,0.232032 -0.009,0.09454 -0.0129,0.167583 -0.0129,0.21914 -1e-5,0.936724 0.27929,1.637113 0.83789,2.101172 0.56718,0.464066 1.41366,0.696097 2.53945,0.696094 0.97109,3e-6 1.99374,-0.146091 3.06797,-0.438281 1.0828,-0.292184 2.21717,-0.726168 3.40313,-1.301954 l -0.70899,3.583594 c -1.12579,0.412501 -2.24728,0.717578 -3.36445,0.915235 -1.10861,0.206249 -2.23868,0.309374 -3.39024,0.309375 -2.25156,-1e-6 -3.9918,-0.519922 -5.2207,-1.559766 -1.22031,-1.039842 -1.83047,-2.509371 -1.83047,-4.408594 0,-1.099993 0.19336,-2.165617 0.58008,-3.196875 0.39531,-1.039834 0.96679,-1.989442 1.71445,-2.848828 0.88516,-1.031237 1.94219,-1.813268 3.1711,-2.346093 1.23749,-0.532798 2.60819,-0.799204 4.11211,-0.799219 1.95077,1.5e-5 3.49764,0.519936 4.64062,1.559765 1.15155,1.039856 1.72733,2.440636 1.72734,4.202344 -10e-6,0.343759 -0.0258,0.708993 -0.0773,1.095703 -0.043,0.378133 -0.11603,0.794929 -0.21914,1.250391 m -4.35703,-2.114063 c 0.0258,-0.11171 0.043,-0.223428 0.0516,-0.335156 0.0172,-0.120303 0.0258,-0.236319 0.0258,-0.348047 -1e-5,-0.68749 -0.20626,-1.233192 -0.61875,-1.637109 -0.41251,-0.403895 -0.9711,-0.605848 -1.67578,-0.60586 -0.90235,1.2e-5 -1.67149,0.249231 -2.30742,0.747657 -0.62735,0.489854 -1.1086,1.216025 -1.44375,2.178515 l 5.96836,0"
     style="font-size:26.39999962px;font-style:italic;font-weight:bold;-inkscape-font-specification:Bitstream Vera Sans Bold Oblique"
     id="path2867" /><path
     d="m 207.49733,-38.891197 -1.71445,8.791406 -4.62774,0 1.45664,-7.528124 c 0.10312,-0.489836 0.18046,-0.902336 0.23203,-1.2375 0.0602,-0.343741 0.0902,-0.614444 0.0902,-0.81211 -1e-5,-0.54999 -0.1547,-0.97538 -0.46406,-1.276172 -0.3008,-0.30077 -0.73048,-0.45116 -1.28907,-0.451172 -0.95391,1.2e-5 -1.77461,0.37384 -2.46211,1.121485 -0.67891,0.739072 -1.15156,1.766024 -1.41796,3.080859 l -1.39219,7.102734 -4.62774,0 2.81016,-14.437499 4.64063,0 -0.4254,2.114062 c 0.85078,-0.83358 1.70585,-1.45233 2.56524,-1.85625 0.85936,-0.403892 1.75741,-0.605844 2.69414,-0.605859 1.33202,1.5e-5 2.35897,0.348061 3.08086,1.04414 0.72186,0.696107 1.08279,1.675794 1.08281,2.939063 -2e-5,0.27501 -0.0215,0.580088 -0.0645,0.915234 -0.0344,0.335166 -0.0902,0.7004 -0.16758,1.095703"
     style="font-size:26.39999962px;font-style:italic;font-weight:bold;-inkscape-font-specification:Bitstream Vera Sans Bold Oblique"
     id="path2869" /><path
     d="m 222.2571,-33.606041 -7.68282,0 -1.90781,3.50625 -5.0918,0 10.87969,-19.245702 5.67188,0 3.40312,19.245702 -4.71797,0 -0.55429,-3.50625 m -5.81368,-3.493359 5.16914,0 -1.16015,-7.412109 -4.00899,7.412109"
     style="font-size:26.39999962px;font-style:italic;font-weight:bold;-inkscape-font-specification:Bitstream Vera Sans Bold Oblique"
     id="path2871" /><path
     d="m 240.74225,-32.549009 c -0.73907,0.842189 -1.49103,1.460938 -2.25586,1.85625 -0.76485,0.395312 -1.59844,0.592968 -2.50078,0.592968 -1.63282,0 -2.92618,-0.524218 -3.88008,-1.572656 -0.94531,-1.057028 -1.41797,-2.49648 -1.41797,-4.318359 0,-0.971087 0.16328,-1.94218 0.48985,-2.913281 0.33515,-0.979678 0.8121,-1.899208 1.43085,-2.758594 0.75625,-1.039831 1.62422,-1.830455 2.60391,-2.371875 0.97968,-0.549986 2.03242,-0.824985 3.1582,-0.825 1.01406,1.5e-5 1.86484,0.197671 2.55235,0.592969 0.69608,0.395326 1.28045,1.018372 1.75312,1.86914 l 0.38672,-2.139843 4.65352,0 -2.43633,12.542578 c -0.49845,2.586718 -1.56408,4.498825 -3.19688,5.736328 -1.63282,1.237495 -3.90157,1.856244 -6.80625,1.85625 -0.89375,-6e-6 -1.75742,-0.06876 -2.59101,-0.20625 -0.825,-0.137506 -1.64141,-0.348052 -2.44922,-0.631641 l 0.6832,-3.596484 c 0.73047,0.46406 1.46094,0.80781 2.19141,1.03125 0.73046,0.232028 1.47812,0.348044 2.24297,0.348047 1.52968,-3e-6 2.70272,-0.326565 3.51914,-0.979688 0.82499,-0.653126 1.37928,-1.692969 1.66289,-3.119531 l 0.20625,-0.992578 m -1.28906,-8.984766 c -1.13439,1.2e-5 -2.0797,0.511339 -2.83594,1.533985 -0.74766,1.022665 -1.12149,2.307429 -1.12149,3.854296 0,0.876568 0.20195,1.54688 0.60586,2.010938 0.4039,0.455472 0.99257,0.683206 1.76602,0.683203 1.12577,3e-6 2.06679,-0.507027 2.82305,-1.521094 0.75623,-1.02265 1.13436,-2.294524 1.13437,-3.815625 -1e-5,-0.89374 -0.20196,-1.572646 -0.60586,-2.036718 -0.40392,-0.472645 -0.99259,-0.708973 -1.76601,-0.708985"
     style="font-size:26.39999962px;font-style:italic;font-weight:bold;-inkscape-font-specification:Bitstream Vera Sans Bold Oblique"
     id="path2873" /><path
     d="m 252.25359,-44.53729 4.64062,0 -2.82305,14.437499 -4.62773,0 2.81016,-14.437499 m 1.08281,-5.620313 4.64062,0 -0.73476,3.764063 -4.65352,0 0.74766,-3.764063"
     style="font-size:26.39999962px;font-style:italic;font-weight:bold;-inkscape-font-specification:Bitstream Vera Sans Bold Oblique"
     id="path2875" /><path
     d="m 262.4114,-50.157603 4.64062,0 -3.90586,20.057812 -4.62773,0 3.89297,-20.057812"
     style="font-size:26.39999962px;font-style:italic;font-weight:bold;-inkscape-font-specification:Bitstream Vera Sans Bold Oblique"
     id="path2877" /><path
     d="m 283.38444,-36.777134 -0.15469,0.734765 -10.80234,0 c -1e-5,0.05157 -0.004,0.128912 -0.0129,0.232032 -0.009,0.09454 -0.0129,0.167583 -0.0129,0.21914 -1e-5,0.936724 0.27929,1.637113 0.83789,2.101172 0.56718,0.464066 1.41366,0.696097 2.53945,0.696094 0.97108,3e-6 1.99374,-0.146091 3.06797,-0.438281 1.0828,-0.292184 2.21717,-0.726168 3.40312,-1.301954 l -0.70898,3.583594 c -1.12579,0.412501 -2.24728,0.717578 -3.36445,0.915235 -1.10861,0.206249 -2.23868,0.309374 -3.39024,0.309375 -2.25157,-1e-6 -3.9918,-0.519922 -5.2207,-1.559766 -1.22031,-1.039842 -1.83047,-2.509371 -1.83047,-4.408594 0,-1.099993 0.19336,-2.165617 0.58008,-3.196875 0.39531,-1.039834 0.96679,-1.989442 1.71445,-2.848828 0.88515,-1.031237 1.94218,-1.813268 3.1711,-2.346093 1.23749,-0.532798 2.60819,-0.799204 4.11211,-0.799219 1.95076,1.5e-5 3.49764,0.519936 4.64062,1.559765 1.15155,1.039856 1.72733,2.440636 1.72734,4.202344 -1e-5,0.343759 -0.0258,0.708993 -0.0773,1.095703 -0.043,0.378133 -0.11603,0.794929 -0.21914,1.250391 m -4.35703,-2.114063 c 0.0258,-0.11171 0.043,-0.223428 0.0516,-0.335156 0.0172,-0.120303 0.0258,-0.236319 0.0258,-0.348047 -1e-5,-0.68749 -0.20626,-1.233192 -0.61875,-1.637109 -0.41251,-0.403895 -0.9711,-0.605848 -1.67578,-0.60586 -0.90235,1.2e-5 -1.67149,0.249231 -2.30742,0.747657 -0.62735,0.489854 -1.1086,1.216025 -1.44375,2.178515 l 5.96836,0"
     style="font-size:26.39999962px;font-style:italic;font-weight:bold;-inkscape-font-specification:Bitstream Vera Sans Bold Oblique"
     id="path2879" /><path
     d="m 286.8649,-35.088462 4.64063,0 -0.9668,4.988671 -4.65352,0 0.97969,-4.988671"
     style="font-size:26.39999962px;font-style:italic;font-weight:bold;-inkscape-font-specification:Bitstream Vera Sans Bold Oblique"
     id="path2881" /><path
     d="m 310.06803,-44.086118 -0.73477,3.764062 c -0.61876,-0.412489 -1.22892,-0.726161 -1.83047,-0.941016 -0.60157,-0.214832 -1.19024,-0.322254 -1.76601,-0.322265 -1.50392,1.1e-5 -2.73282,0.507042 -3.68672,1.521093 -0.95391,1.005478 -1.43087,2.294539 -1.43086,3.867188 -10e-6,1.005474 0.29648,1.787504 0.88945,2.346094 0.59296,0.550003 1.43085,0.825003 2.51367,0.825 0.72187,3e-6 1.43085,-0.107419 2.12696,-0.322266 0.69608,-0.21484 1.3578,-0.532809 1.98515,-0.953906 l -0.70898,3.776953 c -0.76486,0.266406 -1.534,0.464062 -2.30742,0.592969 -0.77345,0.137499 -1.55118,0.206249 -2.33321,0.20625 -2.26875,-1e-6 -4.01758,-0.507032 -5.24648,-1.521094 -1.22031,-1.022654 -1.83047,-2.4707 -1.83047,-4.344141 0,-1.177337 0.22344,-2.320304 0.67031,-3.428906 0.45547,-1.108584 1.1043,-2.105458 1.94649,-2.990625 0.93671,-0.971081 2.01093,-1.692955 3.22265,-2.165625 1.21171,-0.472642 2.6082,-0.708969 4.18946,-0.708984 0.73045,1.5e-5 1.45663,0.06876 2.17851,0.20625 0.72186,0.12892 1.43944,0.326577 2.15274,0.592969"
     style="font-size:26.39999962px;font-style:italic;font-weight:bold;-inkscape-font-specification:Bitstream Vera Sans Bold Oblique"
     id="path2883" /><path
     d="m 320.3032,-41.585337 c -1.19454,1.1e-5 -2.17852,0.541417 -2.95195,1.624218 -0.77344,1.082822 -1.16016,2.462117 -1.16016,4.137891 0,0.910942 0.20625,1.607035 0.61875,2.088281 0.42109,0.47266 1.03125,0.708988 1.83047,0.708985 1.19452,3e-6 2.17851,-0.541403 2.95195,-1.624219 0.77343,-1.091401 1.16015,-2.47929 1.16016,-4.163672 -10e-6,-0.902334 -0.21056,-1.589833 -0.63164,-2.0625 -0.41251,-0.472645 -1.01837,-0.708973 -1.81758,-0.708984 m 0.37383,-3.3 c 2.14843,1.5e-5 3.8371,0.545717 5.06602,1.637109 1.22889,1.091418 1.84334,2.578136 1.84335,4.460156 -1e-5,1.091414 -0.19337,2.152741 -0.58007,3.183985 -0.38674,1.02266 -0.94963,1.959378 -1.68868,2.810156 -0.87657,1.014064 -1.91212,1.778907 -3.10664,2.294531 -1.19454,0.515625 -2.52657,0.773437 -3.99609,0.773438 -2.12266,-1e-6 -3.79844,-0.545703 -5.02734,-1.63711 -1.22032,-1.091404 -1.83047,-2.578121 -1.83047,-4.460156 0,-1.082806 0.19765,-2.139836 0.59297,-3.171094 0.39531,-1.039833 0.96249,-1.989442 1.70156,-2.848828 0.85937,-0.996862 1.88203,-1.753111 3.06797,-2.26875 1.19452,-0.51561 2.51366,-0.773422 3.95742,-0.773437"
     style="font-size:26.39999962px;font-style:italic;font-weight:bold;-inkscape-font-specification:Bitstream Vera Sans Bold Oblique"
     id="path2885" /><path
     d="m 345.10476,-42.139634 c 0.71326,-0.885143 1.52107,-1.564049 2.42344,-2.036719 0.91091,-0.472642 1.85622,-0.708969 2.83593,-0.708984 1.28904,1.5e-5 2.3031,0.356655 3.04219,1.069922 0.74763,0.7047 1.12146,1.675793 1.12148,2.913281 -2e-5,0.257823 -0.0215,0.554307 -0.0645,0.889453 -0.0344,0.326572 -0.0903,0.7004 -0.16758,1.121484 l -1.71445,8.791406 -4.65351,0 1.45664,-7.528124 0.0387,-0.19336 c 0.22341,-1.065616 0.33513,-1.748818 0.33515,-2.049609 -2e-5,-0.472646 -0.13752,-0.846474 -0.4125,-1.121485 -0.26642,-0.274988 -0.63166,-0.412488 -1.0957,-0.4125 -0.88517,1.2e-5 -1.63713,0.365246 -2.25586,1.095704 -0.61017,0.721884 -1.04845,1.75743 -1.31484,3.10664 l -1.39219,7.102734 -4.65352,0 1.48243,-7.528124 c 0.12889,-0.644524 0.21913,-1.13007 0.2707,-1.456641 0.0515,-0.335147 0.0773,-0.597256 0.0773,-0.786328 -1e-5,-0.48124 -0.13321,-0.855068 -0.39961,-1.121485 -0.26641,-0.274988 -0.63594,-0.412488 -1.10859,-0.4125 -0.85079,1.2e-5 -1.59845,0.378136 -2.24297,1.134375 -0.63594,0.747666 -1.07852,1.770321 -1.32773,3.067969 l -1.39219,7.102734 -4.62773,0 2.81015,-14.437499 4.64063,0 -0.42539,2.114062 c 0.72186,-0.816393 1.491,-1.430845 2.30742,-1.843359 0.81639,-0.412486 1.66717,-0.618735 2.55234,-0.61875 0.99686,1.5e-5 1.85194,0.257827 2.56524,0.773437 0.71326,0.507045 1.14295,1.164466 1.28906,1.972266"
     style="font-size:26.39999962px;font-style:italic;font-weight:bold;-inkscape-font-specification:Bitstream Vera Sans Bold Oblique"
     id="path2887" /></g>
</g></svg>