<?xml version="1.0" encoding="UTF-8"?>
<!DOCTYPE svg PUBLIC "-//W3C//DTD SVG 1.1//EN" "http://www.w3.org/Graphics/SVG/1.1/DTD/svg11.dtd"><svg viewBox="0 0 21590 27940" preserveAspectRatio="xMidYMid" fill-rule="evenodd"><g visibility="visible" id="Default"><desc>Master slide</desc></g><g visibility="visible" id="page8"><desc>Slide</desc><g><desc>Graphic</desc><g><g style="stroke:none;fill:rgb(0,0,0)"><path d="M 10954,21698 L 10949,21740 10946,21783 10946,21823 10949,21865 10954,21905 10960,21944 10968,21982 10978,22021 10989,22058 11002,22095 11018,22133 11037,22167 11055,22201 11074,22236 11095,22268 11119,22299 11143,22331 11169,22360 11198,22387 11227,22413 11257,22440 11288,22464 11320,22485 11355,22506 11389,22525 11426,22540 11461,22556 11501,22572 11540,22583 11580,22593 11620,22601 11662,22609 11662,22609 11838,22609 11880,22601 11920,22593 11960,22583 11999,22572 12036,22556 12074,22540 12108,22525 12145,22506 12177,22485 12212,22464 12243,22440 12273,22413 12302,22387 12328,22360 12355,22331 12379,22299 12403,22268 12424,22236 12445,22201 12464,22167 12479,22133 12495,22095 12509,22058 12522,22021 12530,21982 12538,21944 12546,21905 12548,21865 12551,21823 12551,21783 12548,21740 12546,21698 12546,21698 12546,21698 12546,9167 12543,9148 12543,9130 12546,9111 12551,9093 12556,9077 12564,9061 12572,9045 12583,9032 12593,9019 12607,9005 12620,8995 12636,8984 12652,8976 12668,8971 12686,8966 12705,8963 12723,8966 12739,8971 12758,8976 12774,8984 12787,8995 12803,9005 12814,9019 12827,9032 12838,9045 12845,9061 12853,9077 12859,9093 12861,9111 12864,9130 12864,9148 12864,9167 12864,9167 12864,9167 12864,14258 12861,14284 12859,14313 12859,14340 12861,14369 12864,14396 12867,14422 12872,14449 12880,14475 12888,14502 12896,14525 12906,14549 12920,14573 12930,14597 12944,14621 12960,14642 12975,14663 12991,14684 13010,14703 13028,14721 13047,14740 13068,14756 13089,14772 13111,14788 13135,14801 13158,14814 13182,14827 13206,14838 13233,14846 13259,14854 13286,14862 13312,14867 13341,14872 13368,14867 13397,14862 13424,14854 13450,14846 13474,14838 13501,14827 13524,14814 13548,14801 13570,14788 13593,14772 13615,14756 13633,14740 13654,14721 13673,14703 13689,14684 13708,14663 13723,14642 13737,14621 13750,14597 13763,14573 13774,14549 13784,14525 13795,14502 13803,14475 13808,14449 13814,14422 13819,14396 13822,14369 13822,14340 13822,14313 13822,14284 13819,14258 13819,14258 13819,14258 13819,8211 13822,8184 13822,8155 13822,8129 13822,8100 13819,8073 13814,8047 13808,8020 13803,7994 13795,7967 13784,7943 13774,7919 13763,7896 13750,7872 13737,7848 13723,7827 13708,7806 13689,7784 13673,7766 13654,7747 13633,7729 13615,7713 13593,7697 13570,7681 13548,7668 13524,7655 13501,7644 13474,7633 13450,7623 13424,7615 13397,7607 13368,7602 13341,7599 13341,7599 7931,7599 7901,7602 7875,7607 7848,7615 7822,7623 7795,7633 7771,7644 7748,7655 7724,7668 7700,7681 7679,7697 7657,7713 7636,7729 7618,7747 7599,7766 7580,7784 7564,7806 7549,7827 7533,7848 7519,7872 7509,7896 7496,7919 7485,7943 7477,7967 7469,7994 7461,8020 7456,8047 7453,8073 7450,8100 7448,8129 7448,8155 7450,8184 7453,8211 7453,8211 7453,14258 7450,14284 7448,14313 7448,14340 7450,14369 7453,14396 7456,14422 7461,14449 7469,14475 7477,14502 7485,14525 7496,14549 7509,14573 7519,14597 7533,14621 7549,14642 7564,14663 7580,14684 7599,14703 7618,14721 7636,14740 7657,14756 7679,14772 7700,14788 7724,14801 7748,14814 7771,14827 7795,14838 7822,14846 7848,14854 7875,14862 7901,14867 7931,14872 7957,14867 7986,14862 8013,14854 8039,14846 8063,14838 8090,14827 8114,14814 8137,14801 8159,14788 8183,14772 8204,14756 8222,14740 8244,14721 8262,14703 8278,14684 8297,14663 8312,14642 8326,14621 8339,14597 8352,14573 8363,14549 8373,14525 8384,14502 8392,14475 8397,14449 8403,14422 8408,14396 8411,14369 8411,14340 8411,14313 8411,14284 8408,14258 8408,14258 8408,9167 8405,9148 8405,9130 8408,9111 8413,9093 8419,9077 8427,9061 8434,9045 8445,9032 8456,9019 8469,9005 8482,8995 8498,8984 8514,8976 8530,8971 8549,8966 8567,8963 8586,8966 8602,8971 8620,8976 8636,8984 8649,8995 8665,9005 8676,9019 8689,9032 8700,9045 8708,9061 8716,9077 8721,9093 8724,9111 8726,9130 8726,9148 8726,9167 8726,9167 8726,21690 8721,21733 8718,21772 8718,21815 8721,21854 8726,21894 8732,21934 8740,21974 8750,22013 8761,22050 8774,22087 8790,22125 8808,22159 8827,22193 8846,22228 8867,22260 8891,22291 8915,22321 8941,22350 8970,22379 8999,22405 9029,22429 9060,22453 9092,22474 9127,22495 9161,22514 9198,22532 9233,22548 9273,22562 9312,22575 9352,22585 9392,22593 9434,22599 9434,22599 9610,22599 9610,22599 9652,22593 9692,22585 9732,22575 9771,22562 9808,22548 9846,22532 9880,22514 9917,22495 9949,22474 9984,22453 10015,22429 10045,22405 10074,22379 10100,22350 10127,22321 10151,22291 10174,22260 10196,22228 10217,22193 10235,22159 10251,22125 10267,22087 10281,22050 10294,22013 10302,21974 10310,21934 10318,21894 10320,21854 10323,21815 10323,21772 10320,21733 10318,21690 10318,21690 10318,21690 10318,15082 10315,15063 10315,15045 10315,15026 10315,15007 10318,14989 10320,14970 10323,14954 10328,14936 10334,14920 10339,14902 10347,14886 10355,14870 10363,14854 10371,14841 10381,14825 10392,14811 10413,14785 10440,14758 10453,14748 10466,14737 10482,14727 10498,14719 10514,14711 10530,14703 10546,14695 10562,14690 10580,14684 10599,14679 10617,14676 10636,14674 10655,14676 10673,14679 10689,14684 10708,14690 10726,14695 10742,14703 10758,14711 10774,14719 10790,14727 10803,14737 10816,14748 10832,14758 10856,14785 10880,14811 10891,14825 10899,14841 10909,14854 10917,14870 10925,14886 10930,14902 10938,14920 10944,14936 10946,14954 10952,14970 10954,14989 10954,15007 10957,15026 10957,15045 10954,15063 10954,15082 10954,15082 10954,21698 10954,21698 Z M 9222,5326 L 9222,5231 9228,5138 9238,5048 9249,4958 9265,4871 9283,4783 9307,4701 9331,4617 9360,4537 9392,4458 9426,4383 9464,4309 9501,4238 9543,4169 9588,4103 9636,4039 9684,3981 9737,3923 9790,3870 9846,3817 9901,3772 9962,3727 10023,3687 10084,3650 10148,3618 10214,3589 10283,3565 10350,3544 10421,3528 10490,3517 10562,3509 10636,3507 10708,3509 10779,3517 10851,3528 10920,3544 10989,3565 11055,3589 11121,3618 11185,3650 11249,3687 11310,3727 11368,3772 11426,3817 11482,3870 11535,3923 11586,3981 11636,4039 11681,4103 11726,4169 11769,4238 11808,4309 11846,4383 11880,4458 11909,4537 11938,4617 11965,4701 11986,4783 12005,4871 12021,4958 12034,5048 12042,5138 12047,5231 12050,5326 12050,5326 12047,5419 12042,5512 12034,5602 12021,5692 12005,5779 11986,5867 11965,5951 11938,6034 11909,6113 11880,6193 11846,6269 11808,6341 11769,6412 11726,6481 11681,6547 11636,6611 11586,6672 11535,6728 11482,6783 11426,6834 11368,6881 11310,6924 11249,6963 11185,7000 11121,7032 11055,7061 10989,7085 10920,7106 10851,7122 10779,7133 10708,7141 10636,7143 10562,7141 10490,7133 10421,7122 10350,7106 10283,7085 10214,7061 10148,7032 10084,7000 10023,6963 9962,6924 9901,6881 9846,6834 9790,6783 9737,6728 9684,6672 9636,6611 9588,6547 9543,6481 9501,6412 9464,6341 9426,6269 9392,6193 9360,6113 9331,6034 9307,5951 9283,5867 9265,5779 9249,5692 9238,5602 9228,5512 9222,5419 9222,5326 9222,5326 Z"/></g></g></g></g></svg>